<svg xmlns="http://www.w3.org/2000/svg" viewBox="0 0 24 24" fill="#FF9900" role="img"><path d="M6.763 10.036c0 .296.032.535.088.715.064.181.16.356.288.524.08.107.344.356.356.367.012.012-1.124 1.624-1.14 1.624-.012 0-.1-.032-.2-.088a3.228 3.228 0 0 1-.88-.715 4.158 4.158 0 0 1-.588-1.036 8.64 8.64 0 0 1-.252-1.22 9.045 9.045 0 0 1-.088-1.252c0-.715.088-1.38.252-1.992a5.98 5.98 0 0 1 .756-1.624c.344-.524.756-.964 1.236-1.316.48-.356 1.02-.644 1.62-.868.6-.22 1.236-.332 1.908-.332.644 0 1.236.088 1.776.268.544.18 1.012.432 1.404.756.392.324.712.712.96 1.164.248.452.412.964.492 1.536H8.868c-.032.296-.048.568-.048.812zm8.928 3.096c-.248.452-.588.844-1.02 1.176-.432.332-.936.588-1.512.768-.576.18-1.2.268-1.872.268-.732 0-1.404-.112-2.016-.332a5.372 5.372 0 0 1-1.596-.924 4.525 4.525 0 0 1-1.092-1.368 6.03 6.03 0 0 1-.636-1.668 7.82 7.82 0 0 1-.216-1.836c0-.644.072-1.252.216-1.824.144-.576.356-1.092.636-1.548.28-.456.624-.844 1.032-1.164.408-.324.876-.576 1.404-.756.528-.18 1.104-.268 1.728-.268.576 0 1.104.072 1.584.216.48.144.912.356 1.296.636.384.28.708.62.972 1.02.264.4.456.868.576 1.404h-3.48c-.048.22-.072.452-.072.696 0 .356.048.692.144 1.008.096.316.24.588.432.816.192.228.432.408.72.54.288.132.624.2 1.008.2.456 0 .864-.088 1.224-.264.36-.176.672-.42.936-.732.264-.312.468-.68.612-1.104h3.552a6.5 6.5 0 0 1-.588 1.536zM17.4 4.2 22 19.8h-2.028l-1.044-3.444H9.072L8.028 19.8H6L10.596 4.2h6.804zm-1.668 10.836L14.28 8.916h-.024l-1.452 6.12h3.928z"/></svg>
